<?xml version="1.0" encoding="UTF-8" standalone="no"?>
<!-- Generator: Adobe Illustrator 14.0.0, SVG Export Plug-In . SVG Version: 6.00 Build 43363)  -->

<svg
   xmlns:dc="http://purl.org/dc/elements/1.1/"
   xmlns:cc="http://creativecommons.org/ns#"
   xmlns:rdf="http://www.w3.org/1999/02/22-rdf-syntax-ns#"
   xmlns:svg="http://www.w3.org/2000/svg"
   xmlns="http://www.w3.org/2000/svg"
   xmlns:sodipodi="http://sodipodi.sourceforge.net/DTD/sodipodi-0.dtd"
   xmlns:inkscape="http://www.inkscape.org/namespaces/inkscape"
   version="1.1"
   x="0px"
   y="0px"
   width="853.33331"
   height="640"
   viewBox="0 0 800 600"
   enable-background="new 0 0 800 600"
   xml:space="preserve"
   id="svg2"
   inkscape:version="0.92.1 r15371"
   sodipodi:docname="Campo_vision.svg"><metadata
     id="metadata179"><rdf:RDF><cc:Work
         rdf:about=""><dc:format>image/svg+xml</dc:format><dc:type
           rdf:resource="http://purl.org/dc/dcmitype/StillImage" /><dc:title></dc:title></cc:Work></rdf:RDF></metadata><defs
     id="defs177"><inkscape:perspective
       sodipodi:type="inkscape:persp3d"
       inkscape:vp_x="0 : 300 : 1"
       inkscape:vp_y="0 : 1000 : 0"
       inkscape:vp_z="800.00002 : 300 : 1"
       inkscape:persp3d-origin="400.00001 : 200 : 1"
       id="perspective181" /></defs><sodipodi:namedview
     pagecolor="#ffffff"
     bordercolor="#666666"
     borderopacity="1"
     objecttolerance="10"
     gridtolerance="10"
     guidetolerance="10"
     inkscape:pageopacity="0"
     inkscape:pageshadow="2"
     inkscape:window-width="1920"
     inkscape:window-height="1057"
     id="namedview175"
     showgrid="false"
     inkscape:zoom="1.390625"
     inkscape:cx="426.66666"
     inkscape:cy="320"
     inkscape:window-x="-8"
     inkscape:window-y="-8"
     inkscape:window-maximized="1"
     inkscape:current-layer="layer3" /><g
     id="Calque_15"
     display="none"
     style="display:none"><circle
       display="inline"
       cx="400.009"
       cy="448.776"
       r="200.44299"
       id="circle5"
       style="display:inline;fill:none;stroke:#000000" /><circle
       display="inline"
       cx="400"
       cy="450"
       r="226.05499"
       id="circle7"
       style="display:inline;fill:none;stroke:#000000" /><circle
       display="inline"
       cx="400"
       cy="450"
       r="250.444"
       id="circle9"
       style="display:inline;fill:none;stroke:#000000" /><circle
       display="inline"
       cx="399.99899"
       cy="448.77701"
       r="273.60999"
       id="circle11"
       style="display:inline;fill:none;stroke:#000000" /><circle
       display="inline"
       cx="400.5"
       cy="450"
       r="299.22101"
       id="circle13"
       style="display:inline;fill:none;stroke:#000000" /><circle
       display="inline"
       cx="400"
       cy="448.77701"
       r="322.388"
       id="circle15"
       style="display:inline;fill:none;stroke:#000000" /><circle
       display="inline"
       cx="400"
       cy="448.5"
       r="346.5"
       id="circle17"
       style="display:inline;fill:none;stroke:#000000" /></g><g
     id="Calque_19"
     display="none"
     style="display:none" /><g
     id="repère"
     display="none"
     style="display:none" /><g
     id="Calque_11"
     transform="translate(-0.124)"><path
       d="m 608.662,327.375 c 20.865,35.707 32.822,77.256 32.822,121.597 0,7.089 -0.306,14.106 -0.903,21.039 -92.543,-8.096 -134.587,-11.593 -240.457,-21.039 -106.73,8.016 -128.61,11.142 -240.466,20.928 -0.592,-6.897 -0.894,-13.877 -0.894,-20.928 0,-43.91 11.726,-85.081 32.216,-120.554"
       id="path22"
       style="fill:none;stroke:#a6a6a6;stroke-width:0.5"
       inkscape:connector-curvature="0" /></g><g
     id="_x36_0_trait_1_"
     transform="translate(-0.1245)"><path
       d="M 61.822,254.034 C 129.335,136.986 255.743,58.206 400.545,58.207 c 144.205,0 270.164,78.127 337.882,194.371 -99.012,57.582 -337.882,196.512 -337.882,196.512 0,0 -233.708,-134.304 -338.723,-195.056 z"
       id="path25"
       style="fill:none;stroke:#fccb7b"
       inkscape:connector-curvature="0" /></g><g
     id="_x33_0_trait"
     transform="translate(0.37)"><g
       id="g28"><path
         d="M 399.714,449.09 C 327.743,325.54 269.435,225.299 225.913,147.642 277.11,118.02 336.554,101.065 399.957,101.064"
         id="path30"
         style="fill:none;stroke:#cfb968"
         inkscape:connector-curvature="0" /><path
         d="M 399.546,449.09 C 471.517,325.54 529.825,225.299 573.347,147.642 522.151,118.02 462.705,101.065 399.303,101.064"
         id="path32"
         style="fill:none;stroke:#cfb968"
         inkscape:connector-curvature="0" /><path
         d="M 399.546,449.09"
         id="path34"
         style="fill:none;stroke:#cfb968"
         inkscape:connector-curvature="0" /><path
         d="M 399.303,101.063"
         id="path36"
         style="fill:none;stroke:#cfb968"
         inkscape:connector-curvature="0" /></g></g><g
     id="_x32_0_trait"
     transform="translate(-0.286)"><g
       id="g39"><path
         d="m 399.235,135.937 c -37.46,10e-4 -71.409,5.902 -104.681,18.014 26.149,74.846 62.366,179.521 104.681,293.725"
         id="path41"
         style="fill:none;stroke:#b68600"
         inkscape:connector-curvature="0" /><path
         d="M 399.371,447.676 C 441.685,333.473 479.869,229.505 506.018,154.658 472.747,142.546 436.831,135.938 399.371,135.937"
         id="path43"
         style="fill:none;stroke:#b68600"
         inkscape:connector-curvature="0" /></g></g><g
     id="Calque_24"
     transform="translate(0.6975)"><g
       id="g46"><path
         d="m 399.303,448.91 c -16.488,-95.543 -36.337,-212.124 -44.394,-255.761 14.646,-2.565 29.013,-3.901 44.394,-3.901"
         id="path48"
         style="fill:none;stroke:#b55535"
         inkscape:connector-curvature="0" /><path
         d="m 399.303,448.91 c 16.488,-95.543 36.339,-212.124 44.393,-255.761 -14.646,-2.565 -29.011,-3.901 -44.393,-3.901"
         id="path50"
         style="fill:none;stroke:#b55535"
         inkscape:connector-curvature="0" /><path
         d="M 399.303,448.91"
         id="path52"
         style="fill:none;stroke:#b55535"
         inkscape:connector-curvature="0" /><path
         d="M 399.303,189.248"
         id="path54"
         style="fill:none;stroke:#b55535"
         inkscape:connector-curvature="0" /></g></g><g
     id="Calque_25"><g
       id="g57"><path
         d="M 399.79,448.734 C 399.362,435.003 395.401,308.187 392.566,223.136 395.248,223 399.79,223 399.79,223"
         id="path59"
         inkscape:connector-curvature="0"
         style="fill:none;stroke:#732813;stroke-width:0.5;stroke-dasharray:2" /><path
         d="m 399.79,448.734 c 0.429,-13.731 4.388,-140.547 7.224,-225.598 C 404.332,223 399.79,223 399.79,223"
         id="path61"
         inkscape:connector-curvature="0"
         style="fill:none;stroke:#732813;stroke-width:0.5;stroke-dasharray:2" /><path
         d="M 399.79,448.734"
         id="path63"
         inkscape:connector-curvature="0"
         style="fill:none;stroke:#732813;stroke-width:0.5;stroke-dasharray:2" /><path
         d="M 399.79,223"
         id="path65"
         inkscape:connector-curvature="0"
         style="fill:none;stroke:#732813;stroke-width:0.5;stroke-dasharray:2" /></g><line
       x1="399.23499"
       y1="227.66701"
       x2="657.20898"
       y2="118.713"
       id="line67"
       style="fill:none;stroke:#732813;stroke-width:0.5" /></g><g
     id="_x31_00"
     transform="translate(-0.028)"><g
       id="g70"><path
         d="m 222.873,463.589 c -0.405,-4.896 -0.612,-9.85 -0.612,-14.851 C 222.261,350.576 301.837,271 400,271 c -10e-4,44.63 0.121,140.466 0.009,177.777 -92.496,7.454 -116.009,9.556 -177.136,14.812 z"
         id="path72"
         style="fill:#e8f5fc"
         inkscape:connector-curvature="0" /><path
         d="m 577.184,463.589 c 0.404,-4.896 0.611,-9.85 0.611,-14.851 0,-98.162 -79.576,-177.739 -177.739,-177.739 0.001,44.63 -0.121,140.466 -0.009,177.777 92.496,7.455 116.01,9.557 177.137,14.813 z"
         id="path74"
         style="fill:#e8f5fc"
         inkscape:connector-curvature="0" /></g><g
       id="g76"><line
         stroke-miterlimit="1"
         x1="224"
         y1="462"
         x2="224"
         y2="462"
         id="line78"
         style="fill:none;stroke:#000000;stroke-linejoin:round;stroke-miterlimit:1" /></g></g><g
     id="_x39_0"
     transform="translate(-0.0155)"><g
       id="g81"><path
         d="m 246.047,359.793 c 30.734,-53.119 88.17,-88.855 153.953,-88.855 10e-4,69.312 0,115.188 0.031,177.801 -82.647,-47.565 -121.364,-70.018 -153.984,-88.946 z"
         id="path83"
         style="fill:#fccb7b"
         inkscape:connector-curvature="0" /><path
         d="m 553.984,359.793 c -30.734,-53.119 -88.17,-88.855 -153.953,-88.855 -0.001,69.312 0,115.188 -0.031,177.801 82.647,-47.565 121.365,-70.018 153.984,-88.946 z"
         id="path85"
         style="fill:#fccb7b"
         inkscape:connector-curvature="0" /></g></g><g
     id="_x36_0"
     transform="translate(0.043)"><g
       id="g88"><path
         d="M 311.239,294.788 C 337.386,279.66 367.744,271 400.124,271 c 0,68.084 0,111.251 -0.124,177.738 -36.756,-63.097 -66.534,-114.291 -88.761,-153.95 z"
         id="path90"
         style="fill:#d2b468"
         inkscape:connector-curvature="0" /><path
         d="M 488.675,294.788 C 462.528,279.66 432.17,271 399.79,271 c 0,68.084 0,111.251 0.124,177.738 36.756,-63.097 66.534,-114.291 88.761,-153.95 z"
         id="path92"
         style="fill:#d2b468"
         inkscape:connector-curvature="0" /></g></g><g
     id="_x33_0"
     transform="translate(-0.0385)"><g
       id="g95"><path
         d="m 339.194,281.611 c 18.97,-6.906 39.448,-10.673 60.806,-10.674 0.031,92.375 0.07,135.67 0,177.738 -24.126,-65.113 -45.896,-124.39 -60.806,-167.064 z"
         id="path97"
         style="fill:#b68600;stroke:#cfb968"
         inkscape:connector-curvature="0" /><path
         d="m 460.883,281.611 c -18.97,-6.906 -39.447,-10.673 -60.806,-10.674 -0.03,92.375 -0.069,135.67 0,177.738 24.126,-65.113 45.897,-124.39 60.806,-167.064 z"
         id="path99"
         style="fill:#b68600;stroke:#cfb968"
         inkscape:connector-curvature="0" /></g></g><g
     id="_x32_0"><g
       id="g102"><path
         d="M 369.613,273.671 C 379.638,271.915 389.472,271 400,271 c 0,70 0,116.812 0,177.738 C 388.714,383.34 375.127,303.541 369.613,273.671 Z"
         id="path104"
         inkscape:connector-curvature="0"
         style="fill:#b55535" /><path
         d="M 430.387,273.671 C 420.361,271.915 410.528,271 400,271 c 0,70 0,116.812 0,177.738 11.286,-65.398 24.873,-145.197 30.387,-175.067 z"
         id="path106"
         inkscape:connector-curvature="0"
         style="fill:#b55535" /></g></g><g
     id="fovea"><g
       id="g109"><path
         d="M 393.939,271.107 C 396.189,271 400,271 400,271 c 0,0 0,172.313 0,177.735 -0.359,-10.813 -3.683,-110.663 -6.061,-177.628 z"
         id="path111"
         inkscape:connector-curvature="0"
         style="fill:#732813" /><path
         d="M 406.061,271.107 C 403.811,271 400,271 400,271 c 0,0 0,172.313 0,177.735 0.359,-10.813 3.682,-110.663 6.061,-177.628 z"
         id="path113"
         inkscape:connector-curvature="0"
         style="fill:#732813" /></g><g
       id="g115"><path
         d="M 393.939,271.107 C 396.189,271 400,271 400,271 c 0,0 0,172.313 0,177.735 -0.359,-10.813 -3.683,-110.663 -6.061,-177.628 z"
         id="path117"
         inkscape:connector-curvature="0"
         style="fill:#732813" /><path
         d="M 406.061,271.107 C 403.811,271 400,271 400,271 c 0,0 0,172.313 0,177.735 0.359,-10.813 3.682,-110.663 6.061,-177.628 z"
         id="path119"
         inkscape:connector-curvature="0"
         style="fill:#732813" /></g></g><g
     id="Calque_18"><ellipse
       cx="399.23499"
       cy="464"
       rx="20.591999"
       ry="26.5"
       id="ellipse122"
       style="fill:#a1a093" /></g><g
     id="Calque_20" /><g
     id="axes"
     transform="translate(0.76501465)"><line
       x1="399.23499"
       y1="13"
       x2="399.23499"
       y2="549"
       id="line126"
       style="fill:none;stroke:#a1a093;stroke-width:0.75;stroke-dasharray:30, 4, 4, 4" /></g><text
     style="font-size:12px;line-height:0%;font-family:ArialMT"
     id="text129"
     font-size="12"
     x="476.99219"
     y="270.9375">30°</text>
<text
     style="font-size:12px;line-height:0%;font-family:ArialMT"
     id="text131"
     font-size="12"
     x="305.19431"
     y="271.2598">30°</text>
<text
     style="font-size:12px;line-height:0%;font-family:ArialMT"
     id="text133"
     font-size="12"
     x="443.69531"
     y="257.41699">20°</text>
<text
     style="font-size:12px;line-height:0%;font-family:ArialMT"
     id="text135"
     font-size="12"
     x="339.19431"
     y="256.41699">20°</text>
<text
     style="font-size:12px;line-height:0%;font-family:ArialMT"
     id="text137"
     font-size="12"
     x="411.0137"
     y="254.33299">10°</text>
<text
     style="font-size:12px;line-height:0%;font-family:ArialMT"
     id="text139"
     font-size="12"
     x="396.17819"
     y="238.88229">3°</text>
<text
     style="font-size:12px;line-height:0%;font-family:ArialMT"
     id="text141"
     font-size="12"
     x="369.6167"
     y="253.6553">10°</text>
<text
     style="font-size:12px;line-height:0%;font-family:ArialMT"
     id="text143"
     font-size="12"
     x="531.2207"
     y="304.8223">60°</text>
<text
     style="font-size:12px;line-height:0%;font-family:ArialMT"
     id="text145"
     font-size="12"
     x="246.04691"
     y="304.1445">60°</text>
<text
     style="font-size:12px;line-height:0%;font-family:ArialMT"
     id="text147"
     font-size="12"
     x="582.9082"
     y="463.5889">94°- 110°</text>
<text
     style="font-size:12px;line-height:0%;font-family:ArialMT"
     id="text149"
     font-size="12"
     x="158.9082"
     y="463.5889">94°- 110°</text>
<g
     inkscape:groupmode="layer"
     id="layer3"
     inkscape:label="texto_es"
     style="display:inline"><text
       y="409.1123"
       x="660.09772"
       font-size="12"
       id="text5209"
       style="font-size:12px;line-height:0%;font-family:ArialMT;display:inline">Visión monocular</text>
<text
       y="563.71002"
       x="352.39453"
       font-size="14"
       id="text5212"
       style="font-size:14px;line-height:0%;font-family:ArialMT;display:inline">Campo Visual</text>
<text
       y="409.1123"
       x="41.097698"
       font-size="12"
       id="text5215"
       style="font-size:12px;line-height:0%;font-family:ArialMT;display:inline">Visión monocular</text>
<text
       y="81.756798"
       x="352.26367"
       font-size="12"
       id="text5218"
       style="font-size:12px;line-height:0%;font-family:ArialMT;display:inline">Visión binocular</text>
<text
       y="126.8408"
       x="322.62109"
       font-size="12"
       id="text5221"
       style="font-size:12px;line-height:0%;font-family:ArialMT;display:inline">Discriminación de colores</text>
<text
       y="165.84081"
       x="313.76172"
       font-size="12"
       id="text5224"
       style="font-size:12px;line-height:0%;font-family:ArialMT;display:inline">Reconocimiento de simbolos</text>
<text
       y="214.84081"
       x="377.41211"
       font-size="12"
       id="text5227"
       style="font-size:12px;line-height:0%;font-family:ArialMT;display:inline">Lectura</text>
<text
       style="line-height:0%;display:inline"
       y="93.291"
       x="633.65619"
       id="text5236"><tspan
         x="633.65619"
         y="93.291"
         font-size="12"
         id="tspan5230"
         style="font-size:12px;font-family:ArialMT" /></text>
<text
       y="462"
       x="380.3623"
       font-size="12"
       id="text5288"
       style="font-size:12px;line-height:0%;font-family:ArialMT;display:inline">OI  OD</text>
<text
       xml:space="preserve"
       style="font-style:normal;font-weight:normal;font-size:11.71875px;line-height:18px;font-family:Sans;text-align:start;letter-spacing:0px;word-spacing:0px;text-anchor:start;fill:#000000;fill-opacity:1;stroke:none;stroke-width:0.9375px;stroke-linecap:butt;stroke-linejoin:miter;stroke-opacity:1"
       x="684.65619"
       y="89.580521"
       id="text5293"><tspan
         sodipodi:role="line"
         x="684.65619"
         y="89.580521"
         style="line-height:0px;text-align:center;text-anchor:middle;stroke-width:0.9375px;font-size:12.00000014px"
         id="tspan5295">Agudeza Visual máxima</tspan><tspan
         sodipodi:role="line"
         x="684.65619"
         y="107.58052"
         style="line-height:0px;text-align:center;text-anchor:middle;stroke-width:0.9375px;font-size:12.00000014px"
         id="tspan5299">Zona focal</tspan><tspan
         sodipodi:role="line"
         x="684.65619"
         y="125.58052"
         style="line-height:0px;text-align:center;text-anchor:middle;stroke-width:0.9375px;font-size:12.00000014px"
         id="tspan5301">3º - 5º</tspan></text>
</g><g
     inkscape:groupmode="layer"
     id="layer4"
     inkscape:label="texto_fr"
     style="display:none"><text
       style="font-size:12px;line-height:0%;font-family:ArialMT"
       id="text151"
       font-size="12"
       x="660.09772"
       y="409.1123">Vision monoculaire</text>
<text
       id="text155"
       x="633.65619"
       y="93.291"
       style="line-height:0%"><tspan
         style="font-size:12px;font-family:ArialMT"
         id="tspan157"
         font-size="12"
         y="93.291"
         x="633.65619">Acuité maximum</tspan><tspan
         style="font-size:12px;font-family:ArialMT"
         id="tspan159"
         font-size="12"
         y="107.691"
         x="643.3092">Zone fovéale</tspan><tspan
         style="font-size:12px;font-family:ArialMT"
         id="tspan161"
         font-size="12"
         y="122.091"
         x="664.52917">3°-5°</tspan></text>
<text
       style="font-size:12px;line-height:0%;font-family:ArialMT"
       id="text169"
       font-size="12"
       x="41.097698"
       y="409.1123">Vision monoculaire</text>
<text
       style="font-size:14px;line-height:0%;font-family:ArialMT"
       id="text171"
       font-size="14"
       x="356.21439"
       y="563.71002">Champ Visuel</text>
<text
       style="font-size:12px;line-height:0%;font-family:ArialMT"
       id="text153"
       font-size="12"
       x="347.35059"
       y="81.756798">Vision binoculaire</text>
<text
       style="font-size:12px;line-height:0%;font-family:ArialMT"
       id="text163"
       font-size="12"
       x="316.36328"
       y="126.8408">Discrimination des couleurs</text>
<text
       style="font-size:12px;line-height:0%;font-family:ArialMT"
       id="text165"
       font-size="12"
       x="308.5"
       y="165.84081">Reconnaissance des symboles</text>
<text
       style="font-size:12px;line-height:0%;font-family:ArialMT"
       id="text167"
       font-size="12"
       x="377.30078"
       y="214.84081">Lecture</text>
<text
       style="font-size:12px;line-height:0%;font-family:ArialMT"
       id="text173"
       font-size="12"
       x="377.56741"
       y="462">OG  OD</text>
</g></svg>